<svg xmlns="http://www.w3.org/2000/svg" width="487" height="395" viewBox="0 0 487 395">
    <g fill="none" fill-rule="evenodd">
        <g>
            <g transform="translate(-465 -280) translate(465 281)">
                <g transform="translate(0 26)">
                    <path fill="#F3F3F3" d="M0 0H487V368H0z"/>
                    <path fill="#B6B6B6" d="M320 155H321V174H320zM322 155H323V174H322zM327 155H328V174H327zM332 155H333V174H332zM338 155H339V174H338zM347 155H348V174H347zM352 155H353V174H352zM365 155H366V174H365zM367 155H368V174H367zM380 155H381V174H380zM389 155H390V174H389zM398 155H399V174H398zM391 155H392V174H391zM400 155H401V174H400zM414 155H415V174H414zM416 155H417V174H416zM430 155H431V174H430zM432 155H433V174H432zM448 155H449V174H448zM459 155H460V174H459zM446 155H447V174H446zM382 155H383V174H382zM384 155H385V174H384zM354 155H355V174H354zM324 155H326V174H324zM349 155H351V174H349zM372 155H374V174H372zM411 155H413V174H411zM418 155H420V174H418zM443 155H445V174H443zM434 155H436V174H434zM408 155H410V174H408zM427 155H429V174H427zM456 155H458V174H456zM386 155H388V174H386zM369 155H371V174H369zM344 155H346V174H344zM329 155H331V174H329zM334 155H337V174H334zM340 155H343V174H340zM361 155H364V174H361zM356 155H360V174H356zM375 155H379V174H375zM393 155H397V174H393zM402 155H407V174H402zM421 155H426V174H421zM437 155H442V174H437zM450 155H455V174H450z"/>
                    <path fill="#003C69" d="M25 23H227V57H25z"/>
                    <g fill-rule="nonzero">
                        <path fill="#FFF" d="M0 0L4.068 0 4.068 10.731 0 10.731zM66.91 0L70.978 0 70.978 10.731 66.91 10.731zM91.555 7.26L91.555 0 87.524 0 87.524 7.26 87.524 10.731 87.524 10.767 91.555 10.767 91.555 10.731 97.731 10.731 97.731 7.26zM17.108 0L14.039 5.065 10.711 0 6.864 0 6.421 10.767 10.415 10.767 10.415 6.871 12.227 9.35 15.666 9.35 17.367 6.871 17.367 10.767 21.583 10.767 20.769 0zM32.821 0h-9.504v10.767h4.475V8.075h5.03c1.368 0 3.106-1.062 3.106-2.373V2.408C35.928 1.063 34.19 0 32.82 0zm-.924 4.498c0 .496-.407.885-.925.885h-3.328V2.94h3.328c.518 0 .925.39.925.885v.673z" transform="translate(77 35)"/>
                        <g fill="#ED2939">
                            <path d="M0 0L11.76 0 11.76 2.94 0 2.94zM0 3.896L11.76 3.896 11.76 6.835 0 6.835zM0 7.756L11.76 7.756 11.76 10.696 0 10.696z" transform="translate(77 35) translate(37.848)"/>
                        </g>
                        <path fill="#FFF" d="M64.198 5.56V2.267C64.198.957 62.571 0 61.202 0h-9.836v10.767h4.474V8.075h2.774l2.33 2.692 4.622-.071-2.81-3.152c.85-.213 1.442-1.24 1.442-1.984zm-4.216-1.062c0 .496-.407.885-.924.885h-3.329V2.94h3.329c.517 0 .924.39.924.885v.673zM76.792 0l-4.475 10.696 4.142.07.518-1.522 4.253.035.48 1.452h4.18L82.19 0h-5.399zm1.257 6.233l1.332-2.94 1.11 2.94h-2.442z" transform="translate(77 35)"/>
                    </g>
                    <path fill="#D8D8D8" d="M24 178H315V338H24zM24 155H315V174H24zM319 178H460V338H319z"/>
                    <path fill="#B6B6B6" d="M342 96H440V101H342z"/>
                    <path fill="#D8D8D8" d="M319 109H460V114H319zM25 109H227V114H25z"/>
                    <path fill="#B6B6B6" d="M25 77H227V82H25zM25 60H131V74H25z"/>
                    <path fill="#D8D8D8" d="M319 117H460V122H319zM25 117H211V122H25zM25 85H131V90H25zM319 125H460V130H319zM25 125H223V130H25zM25 93H189V98H25zM319 133H460V138H319zM25 133H197V138H25zM25 101H220V106H25z"/>
                    <rect width="141" height="16" x="319" y="25" fill="#B6B6B6" rx="7.2"/>
                    <rect width="141" height="16" x="319" y="71" fill="#ED2939" rx="7.2"/>
                    <rect width="141" height="16" x="319" y="48" fill="#B6B6B6" rx="7.2"/>
                </g>
                <circle cx="393" cy="86" r="86" stroke="#D0021B"/>
            </g>
        </g>
    </g>
</svg>
