<svg xmlns="http://www.w3.org/2000/svg" xmlns:xlink="http://www.w3.org/1999/xlink" width="1066" height="214" viewBox="0 0 1066 214">
    <defs>
        <path id="fia52lkwla" d="M0 0H90V138H0z"/>
    </defs>
    <g fill="none" fill-rule="evenodd">
        <g>
            <g transform="translate(-165 -278) translate(165 278)">
                <g fill="#F2F3F7">
                    <path d="M0 0L871 0 871 211 0 211z" transform="translate(101 1)"/>
                </g>
                <circle cx="106.5" cy="107.5" r="106.5" fill="#FFF"/>
                <circle cx="960" cy="106" r="106" fill="#FFF"/>
                <g fill="#003C69">
                    <g>
                        <path d="M16.02 46.396c-3.73 0-6.763 3.025-6.763 6.743 0 3.717 3.034 6.742 6.763 6.742 3.73 0 6.764-3.025 6.764-6.742 0-3.718-3.034-6.743-6.764-6.743M47.344 46.235c-3.73 0-6.763 3.025-6.763 6.743 0 3.718 3.033 6.743 6.763 6.743s6.764-3.025 6.764-6.743c0-3.718-3.034-6.743-6.764-6.743" transform="translate(105 113) translate(.605 .6)"/>
                        <g stroke="#003C69" stroke-width=".9">
                            <path d="M58.828 47.74c-.438-.937-1.264-2.298-2.799-3.827-1.773-1.769-6.362-3.864-11.023-2.988-2.584.487-6.09 2.095-8.51 6.92h-8.419c-1.999-5.122-6.462-8.144-12.135-8.144-6.532 0-9.851 4.814-11.005 8.143h-1.97v-12.34l38.819.231V24.801h9.006c.798 0 1.166.217 1.267.351l.038.131 6.73 9.88V47.74zM3.232 3.184c.191-.186.549-.218.613-.216l33.24.005c.524 0 1.753 0 1.753 1.938v18.641h-.019v9.207l-35.852-.214V4.152c0-.324.046-.756.265-.967h0zm51.546 20.77c-.398-.893-1.571-2.112-3.986-2.112h-8.987V4.912c0-2.258-1.236-4.895-4.72-4.895H3.994c-.36-.014-1.706.007-2.77.99C.666 1.521 0 2.486 0 4.151v46.65h7.245l.257-1.161c.062-.285 1.62-6.982 8.44-6.982 6.742 0 9.004 4.965 9.665 7.1l.322 1.043H38.41l.388-.887c1.525-3.48 3.799-5.527 6.758-6.084 3.639-.685 7.306 1.107 8.375 2.173 2.059 2.053 2.45 3.61 2.45 3.61l.238 1.188h5.175V34.255l-7.017-10.3z" transform="translate(105 113) translate(.605 .6)"/>
                        </g>
                    </g>
                </g>
                <g transform="translate(16 50)">
                    <mask id="vpds732bub" fill="#fff">
                        <use xlink:href="#fia52lkwla"/>
                    </mask>
                    <g mask="url(#vpds732bub)">
                        <g>
                            <path d="M0 0L118.214 0 118.214 103.134 0 103.134z" transform="translate(-34.558 19.145)"/>
                            <path fill="#003C69" d="M112.37 36.322c-.895 1.108-2.152 2.105-3.558 2.85-1.51.803-3.167 1.294-4.697 1.294-2.475 0-4.717-1.02-6.337-2.67-1.622-1.65-2.625-3.928-2.625-6.446 0-.254-.04-.5-.113-.728l-1.495-6.128-4.827-19.796h11.098l13.504 27.689.067.127c.143.31.21.64.21.98 0 .902-.468 1.888-1.227 2.828zM45.45 98.438H16.258V44.966c2.824-.493 5.351-1.873 7.293-3.848.619-.63 1.178-1.32 1.669-2.06.489.74 1.05 1.43 1.668 2.06 2.457 2.5 5.853 4.046 9.602 4.046 3.75 0 7.145-1.546 9.602-4.046.617-.629 1.176-1.322 1.666-2.065.49.743 1.05 1.434 1.672 2.065 2.457 2.5 5.852 4.046 9.6 4.046 3.751 0 7.146-1.546 9.604-4.046.618-.63 1.178-1.32 1.669-2.06.49.74 1.05 1.43 1.668 2.06 2.458 2.5 5.853 4.046 9.602 4.046 3.75 0 7.145-1.546 9.603-4.046.618-.63 1.177-1.32 1.667-2.06.491.74 1.05 1.43 1.669 2.06 1.942 1.975 4.469 3.355 7.294 3.847v53.472H50.07V51.995c0-1.297-1.034-2.349-2.309-2.349-1.275 0-2.309 1.052-2.309 2.35v46.442zm-35.25-58.94c-1.589-.78-3.04-1.936-4.093-3.218-.919-1.12-1.491-2.272-1.491-3.23 0-.256.043-.487.135-.681L18.25 4.698h11.097L24.52 24.494l-1.495 6.128c-.073.229-.113.474-.113.728 0 2.518-1.003 4.796-2.624 6.446-1.62 1.65-3.863 2.67-6.337 2.67-1.225 0-2.52-.365-3.749-.967zm23.892-34.8h12.985l-.322 5.279-.885 14.517-.4 6.552c-.011.1-.019.2-.019.304 0 2.518-1.003 4.796-2.624 6.446-1.622 1.65-3.862 2.67-6.337 2.67-2.475 0-4.715-1.02-6.337-2.67-1.568-1.594-2.558-3.778-2.622-6.196l1.733-7.106 4.828-19.796zm16.39 19.895l.004-.1 1.207-19.795H66.37l1.207 19.796.418 6.847v.009c0 2.518-1.004 4.796-2.624 6.446-1.622 1.65-3.863 2.67-6.339 2.67-2.475 0-4.715-1.02-6.337-2.67-1.584-1.61-2.578-3.824-2.624-6.272v-.182l.411-6.75zM70.985 4.698h12.985l4.828 19.796 1.733 7.106c-.064 2.418-1.054 4.602-2.622 6.196-1.621 1.65-3.861 2.67-6.337 2.67-2.475 0-4.715-1.02-6.337-2.67-1.622-1.65-2.625-3.928-2.625-6.446 0-.102-.006-.205-.018-.304l-.4-6.552-1.207-19.796zm32.394-3.236C103.035.605 102.208 0 101.242 0h-84.42c-.965 0-1.793.605-2.138 1.462L.604 30.332C.192 31.202 0 32.117 0 33.05c0 2.106.988 4.309 2.573 6.24 1.45 1.77 3.446 3.36 5.626 4.431 1.108.543 2.27.957 3.442 1.199v53.52H2.538v4.695h113.138v-4.696h-9.252v-53.5c1.54-.293 3.084-.858 4.517-1.618 1.94-1.03 3.699-2.437 4.982-4.026 1.418-1.755 2.291-3.759 2.291-5.8 0-1.146-.267-2.159-.763-3.182l-14.07-28.85z" transform="translate(-34.558 19.145)"/>
                        </g>
                    </g>
                </g>
                <g fill="#003C69" fill-rule="nonzero" transform="translate(906.5 110)">
                    <circle cx="22.167" cy="5.833" r="5.833"/>
                    <path d="M35.612 20.867c-1.168-1.183-3.175-3.367-7.069-3.367h-7.607C12.699 17.47 5.99 10.675 5.99 2.333H0c0 9.586 6.32 17.715 14.976 20.354V63h5.99V44.8h5.99V63h5.99V26.752l11.83 11.981L49 34.456 35.612 20.867z"/>
                </g>
                <path stroke="#003C69" stroke-dasharray="2 4" stroke-linecap="round" stroke-linejoin="round" d="M191.5 152h48v-29h67v29H352l.5-18H391V79h172v44h196.134v17h56.207v12H899.5"/>
            </g>
        </g>
    </g>
</svg>
