<svg width="28" height="28" viewBox="0 0 28 28" fill="none" xmlns="http://www.w3.org/2000/svg">
<g clip-path="url(#clip0_2_500)">
<g clip-path="url(#clip1_2_500)">
<path opacity="0.2" d="M14 28C21.732 28 28 21.732 28 14C28 6.26801 21.732 0 14 0C6.26801 0 0 6.26801 0 14C0 21.732 6.26801 28 14 28Z" fill="#64A2ED"/>
<path fill-rule="evenodd" clip-rule="evenodd" d="M10.5055 18.6659C9.50837 18.6659 8.69714 19.4771 8.69714 20.4742C8.69714 21.4713 9.50837 22.2825 10.5055 22.2825C11.5026 22.2825 12.3138 21.4713 12.3138 20.4742C12.3138 19.4771 11.5026 18.6659 10.5055 18.6659ZM18.8806 18.6223C17.8835 18.6223 17.0723 19.4335 17.0723 20.4306C17.0723 21.4278 17.8835 22.239 18.8806 22.239C19.8777 22.239 20.6889 21.4278 20.6889 20.4306C20.6889 19.4335 19.8777 18.6223 18.8806 18.6223Z" fill="#204DB8"/>
<path fill-rule="evenodd" clip-rule="evenodd" d="M21.9512 19.026C21.8346 18.7748 21.6137 18.41 21.203 17.9993C20.7286 17.5249 19.502 16.9633 18.2552 17.1982C17.5646 17.3289 16.6273 17.7598 15.9802 19.054H13.7293C13.195 17.6805 12.0019 16.87 10.4845 16.87C8.73834 16.87 7.8509 18.1611 7.54212 19.054H7.01556V15.7446L17.395 15.8068V12.873H19.803C20.0161 12.873 20.1141 12.9313 20.1413 12.9671L20.1515 13.0021L21.9512 15.652V19.026ZM7.08634 7.07623C7.13767 7.02646 7.23334 7.0179 7.24967 7.01868L16.1373 7.02023C16.2773 7.02023 16.6063 7.02023 16.6063 7.53979V12.5393H16.6017V15.008L7.01556 14.9512V7.33601C7.01556 7.2489 7.02801 7.13379 7.08634 7.07623ZM20.8686 12.6467C20.762 12.4071 20.4486 12.0805 19.803 12.0805H17.3997V7.53979C17.3997 6.9339 17.0691 6.2269 16.1373 6.2269H7.29012C7.19367 6.22223 6.83434 6.22846 6.5489 6.49212C6.40034 6.63057 6.22223 6.88879 6.22223 7.33601V19.8473H8.1589L8.22812 19.5362C8.24445 19.4592 8.66134 17.6633 10.4845 17.6633C12.2873 17.6633 12.8925 18.9949 13.069 19.5673L13.1546 19.8473H16.492L16.5962 19.6093C17.0038 18.676 17.612 18.1269 18.403 17.9776C19.3752 17.794 20.356 18.2747 20.6422 18.5609C21.1929 19.1108 21.2971 19.5285 21.2971 19.5285L21.3609 19.8473H22.7446V15.4093L20.8686 12.6467Z" fill="#204DB8" stroke="#204DB8" stroke-width="0.155556"/>
</g>
</g>
<defs>
<clipPath id="clip0_2_500">
<rect width="28" height="28" fill="white"/>
</clipPath>
<clipPath id="clip1_2_500">
<rect width="28" height="28" fill="white"/>
</clipPath>
</defs>
</svg>
