<svg width="24" height="24" viewBox="0 0 24 24" fill="none" xmlns="http://www.w3.org/2000/svg">
<rect width="24" height="24" rx="12" fill="#002F6C"/>
<path d="M8.71119 18.704C8.71119 18.5653 8.68452 18.496 8.63119 18.496L8.26319 18.672C8.26319 18.5973 8.22052 18.544 8.13519 18.512L8.00719 18.496C7.92185 18.496 7.81519 18.5333 7.68719 18.608C7.66585 18.5547 7.63919 18.5013 7.60719 18.448C7.57519 18.3947 7.54852 18.3467 7.52719 18.304C7.38852 18.0373 7.24985 17.744 7.11119 17.424C6.98319 17.0933 6.86052 16.7787 6.74319 16.48C6.63652 16.1813 6.55119 15.9467 6.48719 15.776C6.44452 15.6373 6.39652 15.4293 6.34319 15.152C6.28985 14.8747 6.23652 14.5227 6.18319 14.096C6.30052 14.1707 6.39119 14.208 6.45519 14.208C6.52985 14.208 6.59919 14.096 6.66319 13.872C6.69519 13.9147 6.75385 13.936 6.83919 13.936C6.90319 13.936 6.95119 13.9147 6.98319 13.872L7.23919 13.488L7.52719 13.584H7.54319C7.56452 13.584 7.58585 13.5733 7.60719 13.552C7.62852 13.5307 7.66052 13.5093 7.70319 13.488C7.78852 13.4347 7.85252 13.408 7.89519 13.408L7.94319 13.424C8.20985 13.552 8.38052 13.7867 8.45519 14.128C8.64719 14.9387 8.83919 15.344 9.03119 15.344C9.22319 15.344 9.44719 15.1413 9.70319 14.736C9.83119 14.5333 9.95919 14.2987 10.0872 14.032C10.2259 13.7653 10.3645 13.4667 10.5032 13.136C10.5245 13.264 10.5459 13.328 10.5672 13.328C10.6205 13.328 10.7112 13.1947 10.8392 12.928C10.9779 12.6613 11.1965 12.2933 11.4952 11.824C11.6659 11.536 11.8792 11.2107 12.1352 10.848C12.4019 10.4853 12.6845 10.112 12.9832 9.728C13.2819 9.344 13.5699 8.98133 13.8472 8.64C14.1352 8.29867 14.3912 8.00533 14.6152 7.76C14.8392 7.51467 15.0045 7.35467 15.1112 7.28C15.5165 7.00267 15.8365 6.736 16.0712 6.48C16.0605 6.55467 16.0445 6.624 16.0232 6.688C16.0125 6.74133 16.0072 6.77867 16.0072 6.8C16.0072 6.84267 16.0285 6.864 16.0712 6.864L16.5192 6.64V6.704C16.5192 6.78933 16.5405 6.832 16.5832 6.832C16.6152 6.832 16.6792 6.784 16.7752 6.688C16.8712 6.592 16.9245 6.52267 16.9352 6.48L16.9032 6.704L17.4472 6.384L17.3192 6.672C17.4899 6.55467 17.6125 6.496 17.6872 6.496C17.7299 6.496 17.7619 6.52267 17.7832 6.576C17.8045 6.61867 17.8152 6.66133 17.8152 6.704C17.8152 6.768 17.7885 6.84267 17.7352 6.928C17.6819 7.01333 17.6125 7.11467 17.5272 7.232C17.4632 7.31733 17.3565 7.44533 17.2072 7.616C17.0685 7.776 16.8552 8.016 16.5672 8.336C16.2792 8.64533 15.8952 9.07733 15.4152 9.632C15.2872 9.77067 15.0899 10.016 14.8232 10.368C14.5565 10.7093 14.2525 11.1093 13.9112 11.568C13.5805 12.016 13.2499 12.4693 12.9192 12.928C12.5885 13.3867 12.2952 13.8027 12.0392 14.176C11.7832 14.5387 11.6019 14.8107 11.4952 14.992L10.5032 16.672C10.2899 17.0347 10.1139 17.3333 9.97519 17.568C9.83652 17.792 9.72985 17.9467 9.65519 18.032C9.49519 18.224 9.31919 18.3947 9.12719 18.544L8.98319 18.464L8.85519 18.544L8.71119 18.704Z" fill="white"/>
</svg>
