<svg width="36" height="28" viewBox="0 0 36 28" fill="none" xmlns="http://www.w3.org/2000/svg">
<g clip-path="url(#clip0_6_191)">
<g clip-path="url(#clip1_6_191)">
<g clip-path="url(#clip2_6_191)">
<path opacity="0.25" d="M14 28C21.732 28 28 21.732 28 14C28 6.26801 21.732 0 14 0C6.26801 0 0 6.26801 0 14C0 21.732 6.26801 28 14 28Z" fill="#64A2ED"/>
<path d="M7 21.7777V6.22217L8.16667 7.38883L9.33333 6.22217L10.5 7.38883L11.6667 6.22217L12.8333 7.38883L14 6.22217L15.1667 7.38883L16.3333 6.22217L17.5 7.38883L18.6667 6.22217L19.8333 7.38883L21 6.22217V21.7777L19.8333 20.6111L18.6667 21.7777L17.5 20.6111L16.3333 21.7777L15.1667 20.6111L14 21.7777L12.8333 20.6111L11.6667 21.7777L10.5 20.6111L9.33333 21.7777L8.16667 20.6111L7 21.7777ZM9.33333 17.8888H18.6667V16.3333H9.33333V17.8888ZM9.33333 14.7777H18.6667V13.2222H9.33333V14.7777ZM9.33333 11.6666H18.6667V10.1111H9.33333V11.6666ZM8.55556 19.5222H19.4444V8.47772H8.55556V19.5222Z" fill="#204DB8"/>
</g>
</g>
</g>
<defs>
<clipPath id="clip0_6_191">
<rect width="28" height="28" fill="white"/>
</clipPath>
<clipPath id="clip1_6_191">
<rect width="28" height="28" fill="white"/>
</clipPath>
<clipPath id="clip2_6_191">
<rect width="28" height="28" fill="white"/>
</clipPath>
</defs>
</svg>
