<svg width="28" height="28" viewBox="0 0 28 28" fill="none" xmlns="http://www.w3.org/2000/svg">
<g clip-path="url(#clip0_2_458)">
<path opacity="0.25" d="M14 28C21.732 28 28 21.732 28 14C28 6.26801 21.732 0 14 0C6.26801 0 0 6.26801 0 14C0 21.732 6.26801 28 14 28Z" fill="#64A2ED"/>
<mask id="mask0_2_458" style="mask-type:luminance" maskUnits="userSpaceOnUse" x="6" y="7" width="17" height="15">
<path d="M6.22223 7H22.0275V21.112H6.22223V7Z" fill="white"/>
</mask>
<g mask="url(#mask0_2_458)">
<path fill-rule="evenodd" clip-rule="evenodd" d="M21.2466 11.97C21.1268 12.1217 20.9588 12.2578 20.7706 12.3597C20.5683 12.4701 20.3467 12.537 20.1429 12.537C19.8116 12.537 19.5121 12.397 19.2951 12.1714C19.0781 11.9459 18.9443 11.6348 18.9443 11.2894C18.9443 11.2552 18.9389 11.221 18.9288 11.1899L18.7297 10.3514L18.0841 7.64244H19.5673L21.3733 11.4318L21.3819 11.4489C21.4013 11.4917 21.4099 11.5368 21.4099 11.5827C21.4099 11.7071 21.3477 11.8417 21.2466 11.97ZM12.299 20.4696H8.39612V13.1522C8.77334 13.0846 9.11167 12.8956 9.37067 12.6257C9.4539 12.5393 9.52856 12.4452 9.5939 12.3433C9.65923 12.4444 9.7339 12.5393 9.81712 12.6257C10.1453 12.9679 10.5996 13.1787 11.1005 13.1787C11.6021 13.1787 12.0563 12.9671 12.3846 12.6257C12.467 12.5401 12.5417 12.4444 12.6078 12.3426C12.6731 12.4444 12.7478 12.5393 12.831 12.6257C13.16 12.9679 13.6135 13.1787 14.1143 13.1787C14.616 13.1787 15.0702 12.9671 15.3985 12.6257C15.4817 12.5393 15.5563 12.4452 15.6217 12.3433C15.687 12.4444 15.7617 12.5393 15.8449 12.6257C16.1731 12.9679 16.6273 13.1787 17.1282 13.1787C17.6299 13.1787 18.0841 12.9671 18.4123 12.6257C18.4956 12.5393 18.5702 12.4452 18.6356 12.3433C18.7009 12.4444 18.7756 12.5393 18.8588 12.6257C19.1186 12.8956 19.4561 13.0846 19.8341 13.1522V20.4688H12.9166V14.1143C12.9166 13.9362 12.7781 13.7923 12.6078 13.7923C12.4375 13.7923 12.299 13.9362 12.299 14.1136V20.468V20.4696ZM7.58567 12.404C7.37334 12.2982 7.17967 12.1396 7.0389 11.9646C6.91601 11.8113 6.83978 11.6534 6.83978 11.522C6.83978 11.487 6.84523 11.4559 6.85767 11.4287L8.66212 7.64244H10.1461L9.50056 10.3514L9.30067 11.1899C9.29056 11.221 9.28512 11.2552 9.28512 11.2894C9.28512 11.634 9.15134 11.9459 8.93512 12.1714C8.71734 12.397 8.4179 12.537 8.08734 12.537C7.92401 12.537 7.75056 12.4872 7.58645 12.4048L7.58567 12.404ZM10.7816 7.64322H12.5176L12.4748 8.36656L12.3558 10.3522L12.3029 11.249C12.3013 11.2622 12.2998 11.2762 12.2998 11.2902C12.2998 11.6348 12.166 11.9467 11.9498 12.1722C11.732 12.3978 11.4326 12.5378 11.102 12.5378C10.7707 12.5378 10.472 12.3978 10.2542 12.1722C10.0442 11.9544 9.91201 11.6558 9.90423 11.3244L10.136 10.3522L10.7816 7.64322ZM12.9726 10.3654V10.3522L13.1343 7.64244H15.0967L15.2585 10.3514L15.3137 11.2887C15.3137 11.6332 15.1799 11.9459 14.9637 12.1714C14.7459 12.397 14.4465 12.537 14.1159 12.537C13.7846 12.537 13.4859 12.397 13.2681 12.1714C13.0566 11.9513 12.9236 11.6488 12.9181 11.3136V11.2887L12.9726 10.3654ZM15.7142 7.64322H17.4502L18.0958 10.3522L18.3276 11.3244C18.319 11.6558 18.186 11.9544 17.9768 12.1722C17.7598 12.3978 17.4603 12.5378 17.129 12.5378C16.7985 12.5378 16.499 12.3978 16.282 12.1722C16.065 11.9467 15.9312 11.6356 15.9312 11.2902C15.9312 11.2762 15.9305 11.2622 15.9289 11.249L15.8752 10.3522L15.7142 7.64322ZM20.0433 7.19989C19.9982 7.08322 19.8878 7 19.7587 7H8.47156C8.34245 7 8.23201 7.08244 8.18534 7.19989L6.30312 11.151C6.2479 11.2684 6.22223 11.3944 6.22223 11.5212C6.22223 11.809 6.35445 12.1108 6.56601 12.3752C6.76045 12.6171 7.02723 12.8349 7.3189 12.9819C7.46667 13.0558 7.62223 13.1126 7.77856 13.1452V20.4688H6.56134V21.1112H21.6883V20.4688H20.4517V13.1491C20.657 13.1087 20.8639 13.0317 21.0552 12.9274C21.315 12.7867 21.5499 12.5938 21.721 12.3768C21.9108 12.1364 22.0275 11.8627 22.0275 11.5834C22.0275 11.4263 21.9917 11.2879 21.9256 11.1479L20.0433 7.19989Z" fill="#204DB8" stroke="#204DB8" stroke-width="0.408333"/>
</g>
</g>
<defs>
<clipPath id="clip0_2_458">
<rect width="28" height="28" fill="white"/>
</clipPath>
</defs>
</svg>
